<svg width="20" height="20" viewBox="0 0 20 20" fill="none" xmlns="http://www.w3.org/2000/svg">
<g id="icon - dashboard/delete" clip-path="url(#clip0_950_320)">
<path id="icon" d="M7.29175 14.5832L10.0001 11.935L12.7084 14.5832L14.1667 13.1573L11.4584 10.5091L14.1667 7.86097L12.7084 6.43504L10.0001 9.08319L7.29175 6.43504L5.83342 7.86097L8.54175 10.5091L5.83342 13.1573L7.29175 14.5832ZM4.79175 19.1665C4.21883 19.1665 3.72855 18.9672 3.32091 18.5687C2.91258 18.1694 2.70841 17.6897 2.70841 17.1295V3.88875H1.66675V1.85171H6.87508V0.833191H13.1251V1.85171H18.3334V3.88875H17.2917V17.1295C17.2917 17.6897 17.0879 18.1694 16.6803 18.5687C16.272 18.9672 15.7813 19.1665 15.2084 19.1665H4.79175ZM15.2084 3.88875H4.79175V17.1295H15.2084V3.88875Z" fill="#E46D64"/>
</g>
<defs>
<clipPath id="clip0_950_320">
<rect width="20" height="20" fill="white"/>
</clipPath>
</defs>
</svg>
